<?xml version="1.0" encoding="utf-8"?><!-- Uploaded to: SVG Repo, www.svgrepo.com, Generator: SVG Repo Mixer Tools -->
<svg
  width="800px"
  height="800px"
  viewBox="0 0 400 400"
  fill="none"
  xmlns="http://www.w3.org/2000/svg"
>
  <!-- reflector -->
  <path
    d="M149.245 104.248C81.9148 221.504 205.983 311.565 310.669 252.026"
    stroke="#ffffff"
    stroke-opacity="0.9"
    stroke-width="16"
    stroke-linecap="round"
    stroke-linejoin="round"
  />
  <!-- neck -->
  <path
    d="M160.38 254.701C104.271 307.734 153.458 304.819 183.363 259.998"
    stroke="#ffffff"
    stroke-opacity="0.9"
    stroke-width="16"
    stroke-linecap="round"
    stroke-linejoin="round"
  />
  <!-- on base -->
  <path
    d="M113.923 320.669C123.278 281.161 159.195 281.161 163.688 317.118"
    stroke="#ffffff"
    stroke-opacity="0.9"
    stroke-width="16"
    stroke-linecap="round"
    stroke-linejoin="round"
  />
  <!-- dhakkan -->
  <path
    d="M160.216 107.72C220.701 143.14 268.514 196.678 314.141 248.914"
    stroke="#ffffff"
    stroke-opacity="0.9"
    stroke-width="16"
    stroke-linecap="round"
    stroke-linejoin="round"
  />
  <!-- sidhi dandi  -->
  <path
    d="M231.971 153.127C288.747 138.119 269.299 136.041 255.052 182.946"
    stroke="#ffffff"
    stroke-opacity="0.9"
    stroke-width="16"
    stroke-linecap="round"
    stroke-linejoin="round"
  />
  <!-- sidhi dandi  -->
  <path
    d="M274.791 137.811C295.57 116.397 314.57 93.981 1036.13 -903"
    stroke="#ffffff"
    stroke-opacity="0.9"
    stroke-width="16"
    stroke-linecap="round"
    stroke-linejoin="round"
  />
  <!-- dandi 1 -->
  <path
    d="M287.522 133.181C282.79 129.868 279.937 125.658 277.106 121.608"
    stroke="#ffffff"
    stroke-opacity="0.9"
    stroke-width="16"
    stroke-linecap="round"
    stroke-linejoin="round"
  />
  <!-- dandi 2 -->
  <path
    d="M315.298 119.293C309.776 109.319 300.669 102.185 292.151 94.9893"
    stroke="#ffffff"
    stroke-opacity="0.9"
    stroke-width="16"
    stroke-linecap="round"
    stroke-linejoin="round"
  />
  <!-- dandi 3 -->
  <path
    d="M328.029 92.6744C320.667 90.8189 316.782 85.6555 311.826 81.1011"
    stroke="#ffffff"
    stroke-opacity="0.9"
    stroke-width="16"
    stroke-linecap="round"
    stroke-linejoin="round"
  />
  <!-- base or ground -->
  <path
    d="M226.184 325.629C175.203 324.332 111.184 327.346 63 326.182"
    stroke="#ffffff"
    stroke-opacity="0.9"
    stroke-width="16"
    stroke-linecap="round"
    stroke-linejoin="round"
  />
</svg>
