<svg viewBox="0 0 48 40" fill="#ffffff" xmlns="http://www.w3.org/2000/svg">
  <path
    d="
          M38.518,20.378c0.389-4.32-5.583-7.165-8.618-3.921c-7.499-1.981-16.092-2.424-22.482,2.541  c-5.291,3.59-7.781,12.642-1.982,16.907c3.589,2.429,7.931,2.563,12.048,2.664c1.335,0.013,2.219-0.15,2.46-0.35  c0.246,0.202,1.206,0.363,2.478,0.418c4.032,0.18,8.142,0.304,12.233-0.491C45.059,36.547,47.054,26.261,38.518,20.378z   
          M32.505,16.899c1.835-0.069,3.346,0.888,4.292,2.373c-1.61-0.93-3.334-1.671-5.015-2.268C32.026,16.95,32.268,16.91,32.505,16.899z   
          M22.441,37.637c-1.212,0.006-2.218,0.164-2.489,0.372c-0.198-0.186-0.956-0.365-2.437-0.439c-3.806-0.27-8.069-0.586-11.191-2.854  c-3.019-2.206-3.12-6.798-1.449-10.013c3.253-6.078,11.068-8.381,17.629-7.48c-0.234,3.239-0.345,6.478-0.384,9.717  c-0.007,0.531,0.427,0.965,0.958,0.958c6.186,0.084,12.558,0.049,18.735-0.423C44.04,37.643,29.275,37.654,22.441,37.637z   
          M24.003,25.975c-0.075-2.886-0.205-5.772-0.438-8.658c6.346,0.653,12.851,2.614,16.939,7.583c0.353,0.471,0.653,0.974,0.9,1.498  C35.661,25.973,29.768,25.914,24.003,25.975z 
          "
  />
  <path
    d="M45.608,21.287c-0.048,0.964-0.895,0.877-0.999,0.04  c-0.814-8.969-9.5-13.8-17.535-10.228c1.844,0.094,3.745,0.124,5.562,0.419c0.707,0.115,0.485,0.921,0.025,1  c-2.245,0.407-4.563,0.717-6.839,0.478c-1.215-0.382-0.831-1.723-0.893-2.654c0.05-1.689,0.221-3.349,0.557-5.01  c0.045-0.223,0.355-0.465,0.63-0.426c0.226,0.032,0.343,0.275,0.37,0.451c0.241,1.595,0.315,2.983,0.369,4.616  C35.213,4.752,46.387,11.097,45.608,21.287z"
  />
</svg>
