<svg viewBox="0 0 100 100" fill="#ffffff" xmlns="http://www.w3.org/2000/svg">
  <g>
    <path
      d="M32.314,42.631V57.35c0.001,9.565,7.753,17.316,17.318,17.317h0.784c9.565-0.001,17.317-7.753,17.318-17.317V42.631   c-0.001-9.565-7.753-17.317-17.318-17.318h-0.784C40.066,25.314,32.315,33.066,32.314,42.631z M49.631,28.216h0.784   c3.985,0.001,7.579,1.611,10.193,4.222c2.611,2.613,4.221,6.208,4.222,10.193V57.35c-0.001,3.985-1.611,7.579-4.222,10.192   c-2.613,2.611-6.208,4.221-10.193,4.222h-0.784c-3.985-0.001-7.58-1.611-10.193-4.222c-2.611-2.613-4.221-6.208-4.222-10.192   V42.631c0.001-3.985,1.611-7.58,4.222-10.193C42.052,29.828,45.646,28.217,49.631,28.216z"
    />
    <path
      d="M50,47.065c0.802,0,1.452-0.65,1.452-1.452v-4.258c0-0.802-0.65-1.452-1.452-1.452c-0.802,0-1.452,0.65-1.452,1.452v4.258   C48.548,46.415,49.198,47.065,50,47.065z"
    />
    <path
      d="M56.374,86.609L56.374,86.609l-6.351,5.081l-6.351-5.081c-0.626-0.501-1.54-0.399-2.04,0.227   c-0.501,0.626-0.399,1.539,0.227,2.04l7.258,5.806c0.53,0.424,1.283,0.424,1.814,0l7.258-5.806c0.626-0.501,0.727-1.414,0.227-2.04   C57.914,86.209,57,86.108,56.374,86.609z"
    />
    <path
      d="M56.374,13.392c0.626,0.501,1.539,0.399,2.04-0.227c0.501-0.626,0.399-1.539-0.227-2.04L50.93,5.318   c-0.531-0.425-1.283-0.425-1.814,0l-7.258,5.806c-0.626,0.501-0.728,1.414-0.227,2.04c0.501,0.626,1.414,0.727,2.04,0.227l0,0   l6.351-5.081L56.374,13.392z"
    />
    <path
      d="M88.875,43.287c-0.501-0.626-1.415-0.727-2.04-0.227c-0.626,0.501-0.727,1.415-0.226,2.041l0,0l5.081,6.351l-5.081,6.351   c-0.501,0.626-0.4,1.539,0.227,2.04c0.626,0.501,1.54,0.4,2.041-0.226l5.806-7.258c0.424-0.531,0.424-1.283,0-1.814L88.875,43.287z   "
    />
    <path
      d="M13.165,43.06c-0.626-0.501-1.539-0.399-2.04,0.227l-5.806,7.258c-0.425,0.53-0.424,1.283,0,1.814l5.806,7.258   c0.501,0.626,1.414,0.727,2.04,0.227c0.626-0.501,0.728-1.414,0.227-2.04l0,0l-5.081-6.351l5.081-6.351   C13.893,44.474,13.791,43.561,13.165,43.06z"
    />
  </g>
</svg>
