<?xml version="1.0" encoding="iso-8859-1"?>
<!-- Generator: Adobe Illustrator 19.0.0, SVG Export Plug-In . SVG Version: 6.00 Build 0)  -->
<svg xmlns="http://www.w3.org/2000/svg" xmlns:xlink="http://www.w3.org/1999/xlink" version="1.1" id="Layer_1" x="0px" y="0px" viewBox="0 0 512 512" style="enable-background:new 0 0 512 512;" xml:space="preserve">
<path style="fill:#88DCE5;" d="M282.86,114.041h-0.002l2.109-3.258h-57.936l2.108,3.258  c-55.395,333.765-53.204,314.242-50.424,316.95c79.464,77.377,74.373,73.272,77.284,73.272c2.916,0-2.341,4.265,77.283-73.272  C336.066,428.281,338.265,447.888,282.86,114.041z"/>
<path style="fill:#74C4C4;" d="M267.602,114.514l-2.414-3.732h-38.157l2.108,3.258c-55.395,333.765-53.204,314.242-50.424,316.95  l31.304,30.483L267.602,114.514z"/>
<path style="fill:#88DCE5;" d="M210.804,11.118c-16.504,51.016-16.575,48.968-14.792,51.726l33.127,51.197  c18.734,0,34.827,0,53.72,0c35.89-55.468,34.689-52.355,33.691-55.459c-2.982-9.218-12.18-37.644-15.356-47.463  c-0.67-2.071-2.597-3.473-4.773-3.473c-16.825,0-64.02,0-80.844,0C213.401,7.645,211.474,9.047,210.804,11.118z"/>
<path style="fill:#74C4C4;" d="M251.69,11.118c0.669-2.071,2.598-3.473,4.773-3.473c-15.685,0-25.417,0-40.885,0  c-2.176,0-4.103,1.402-4.773,3.473c-16.504,51.016-16.575,48.968-14.792,51.726l33.127,51.197c15.185,0,25.503,0,40.884,0  l-33.126-51.197C235.114,60.087,235.187,62.13,251.69,11.118z"/>
<polygon style="fill:#2AB5BC;" points="218.148,180.264 308.207,266.775 297.642,203.105 225.81,134.104 "/>
<polygon style="fill:#2F9FB2;" points="251.391,212.197 259.051,166.036 225.81,134.104 219.307,173.279 218.148,180.264 "/>
<polygon style="fill:#2AB5BC;" points="202.419,275.036 329.904,397.497 319.335,333.829 210.081,228.877 "/>
<polygon style="fill:#2F9FB2;" points="243.323,260.808 210.081,228.877 202.419,275.036 235.661,306.968 "/>
<polygon style="fill:#2AB5BC;" points="283.458,113.114 304.814,80.111 229.378,7.645 211.928,7.645 202.855,35.686 "/>
<path style="fill:#2F9FB2;" d="M210.804,11.118l-7.948,24.568l43.52,41.805c-10.191-15.748-10.985-15.981-10.043-18.91  l10.923-33.762L229.378,7.645h-13.801C213.401,7.645,211.474,9.047,210.804,11.118z"/>
<polygon style="fill:#2AB5BC;" points="186.692,369.808 292.115,471.08 319.781,444.139 194.352,323.649 "/>
<polygon style="fill:#2F9FB2;" points="227.594,355.582 194.352,323.649 186.692,369.808 219.933,401.74 "/>
<path d="M342.296,426.395c-5.697-34.327-46.095-277.754-51.649-311.218c2.219-3.429,25.143-38.859,32.729-50.582  c1.225-1.894,1.533-4.237,0.839-6.383L307.06,5.191C306.06,2.097,303.178,0,299.925,0c-8.593,0-79.27,0-87.851,0  c-3.253,0-6.135,2.097-7.136,5.191c-3.471,10.73-13.604,42.049-17.152,53.021c-0.694,2.146-0.386,4.489,0.839,6.383l32.731,50.584  l-7.747,46.673c-1.768,10.653-40.65,244.933-43.905,264.542c-0.402,2.422,0.407,4.888,2.166,6.601  c85.054,82.822,79.789,78.954,84.131,78.954c4.198,0-1.878,4.798,84.129-78.954C341.888,431.283,342.698,428.817,342.296,426.395z   M319.536,432.114l-18.385-17.66c-2.986-2.868-7.734-2.773-10.604,0.214c-2.869,2.987-2.773,7.734,0.214,10.604l18.022,17.312  c-6.566,6.394-4.521,4.403-16.822,16.38l-96.993-93.173c0.544-3.28,4.184-25.214,4.657-28.067l72.357,69.507  c2.987,2.868,7.734,2.774,10.604-0.214c2.869-2.986,2.773-7.734-0.214-10.604L202.6,319.786l5.064-30.514l18.015,17.305  c2.986,2.868,7.734,2.774,10.604-0.214c2.869-2.987,2.773-7.734-0.214-10.604l-25.428-24.426l4.659-28.067l96.832,93.02  l6.425,38.704l-63.51-61.039c-2.987-2.871-7.734-2.776-10.604,0.21c-2.87,2.986-2.776,7.734,0.21,10.604l78.012,74.976l4.192,25.243  L319.536,432.114z M223.344,194.815l77.704,74.642l6.985,42.088l-89.753-86.219L223.344,194.815z M235.587,121.043h40.829  l9.993,60.212l-52.453-50.386L235.587,121.043z M296.939,244.713l-70.618-67.836l4.659-28.068l59.535,57.188L296.939,244.713z   M308.846,59.439l-5.553,8.582l-55.193-53.021h46.369L308.846,59.439z M226.449,14.999l68.545,65.848l-12.984,20.067l-70.395-67.623  l5.916-18.291H226.449z M206.48,49.158l59.218,56.885H233.31L203.155,59.44L206.48,49.158z M256.001,493.982l-70.857-68.997  l6.847-41.254l89.219,85.705L256.001,493.982z"/>
<g>
</g>
<g>
</g>
<g>
</g>
<g>
</g>
<g>
</g>
<g>
</g>
<g>
</g>
<g>
</g>
<g>
</g>
<g>
</g>
<g>
</g>
<g>
</g>
<g>
</g>
<g>
</g>
<g>
</g>
</svg>
