<svg xmlns="http://www.w3.org/2000/svg" version="1.1" xmlns:xlink="http://www.w3.org/1999/xlink" xmlns:svgjs="http://svgjs.dev/svgjs" width="14400" height="5600" preserveAspectRatio="none" viewBox="0 0 14400 5600"><g mask="url(&quot;#SvgjsMask1000&quot;)" fill="none"><rect width="14400" height="5600" x="0" y="0" fill="#0e2a47"></rect><path d="M0,4207.267C795.368,4114.432,1537.252,3869.262,2240.496,3486.279C2990.666,3077.74,3893.383,2715.483,4201.891,1918.939C4508.813,1126.491,3823.287,302.837,3802.51,-546.718C3777.632,-1563.934,4753.785,-2773.214,4068.736,-3525.58C3376.876,-4285.427,2075.461,-3531.068,1048.609,-3571.235C318.092,-3599.81,-364.828,-3772.729,-1094.506,-3727.546C-2018.295,-3670.343,-3041.222,-3834.469,-3776.606,-3272.448C-4544.188,-2685.819,-5010.99,-1688.632,-5026.277,-722.67C-5041.057,211.314,-4278.913,928.083,-3856.263,1761.096C-3454.382,2553.175,-3353.903,3575.94,-2603.876,4051.71C-1854.455,4527.095,-881.497,4310.155,0,4207.267" fill="#0b2239"></path><path d="M14400 12420.251C15646.585 12161.726999999999 16209.944 10740.976999999999 17157.409 9890.613000000001 17923.564 9202.976999999999 18811.34 8718.065 19436.368000000002 7900.032 20202.798 6896.933 21323.458 5879.376 21180.592 4625.098 21037.989999999998 3373.145 19647.195 2714.755 18745.496 1834.607 17923.818 1032.567 17212.209 90.0600000000004 16132.954-301.89800000000014 15016.844000000001-707.2399999999998 13704.194-915.5959999999995 12643.7-381.40800000000036 11612.859 137.84400000000005 11386.649 1470.647 10729.804 2419.757 10159.792000000001 3243.398 9373.305 3885.2560000000003 9037.748 4829.025 8649.25 5921.694 8360.589 7099.45 8668.41 8217.529 8999.933 9421.698 9787.343 10471.632 10794.558 11210.178 11838.006 11975.293 13133.055 12682.997 14400 12420.251" fill="#113255"></path></g><defs><mask id="SvgjsMask1000"><rect width="14400" height="5600" fill="#ffffff"></rect></mask></defs></svg>