<svg xmlns="http://www.w3.org/2000/svg" version="1.1" xmlns:xlink="http://www.w3.org/1999/xlink" xmlns:svgjs="http://svgjs.dev/svgjs" width="14400" height="5600" preserveAspectRatio="none" viewBox="0 0 14400 5600"><g mask="url(&quot;#SvgjsMask1395&quot;)" fill="none"><rect width="14400" height="5600" x="0" y="0" fill="url(&quot;#SvgjsLinearGradient1396&quot;)"></rect><path d="M14400 0L10167.439999999999 0L14400 517.08z" fill="rgba(255, 255, 255, .1)"></path><path d="M10167.439999999999 0L14400 517.08L14400 1433.7L6799.1799999999985 0z" fill="rgba(255, 255, 255, .075)"></path><path d="M6799.179999999999 0L14400 1433.7L14400 1496.21L6419.829999999999 0z" fill="rgba(255, 255, 255, .05)"></path><path d="M6419.829999999999 0L14400 1496.21L14400 3590.44L5023.0599999999995 0z" fill="rgba(255, 255, 255, .025)"></path><path d="M0 5600L3290.67 5600L0 4445.28z" fill="rgba(0, 0, 0, .1)"></path><path d="M0 4445.28L3290.67 5600L9253.33 5600L0 3687.1699999999996z" fill="rgba(0, 0, 0, .075)"></path><path d="M0 3687.17L9253.33 5600L12122.33 5600L0 2252.79z" fill="rgba(0, 0, 0, .05)"></path><path d="M0 2252.79L12122.33 5600L12771.11 5600L0 873.72z" fill="rgba(0, 0, 0, .025)"></path></g><defs><mask id="SvgjsMask1395"><rect width="14400" height="5600" fill="#ffffff"></rect></mask><linearGradient x1="15.28%" y1="-39.29%" x2="84.72%" y2="139.29%" gradientUnits="userSpaceOnUse" id="SvgjsLinearGradient1396"><stop stop-color="#0e2a47" offset="0"></stop><stop stop-color="rgba(0, 69, 158, 0.62)" offset="1"></stop></linearGradient></defs></svg>